<?xml version="1.0" encoding="UTF-8"?>
<svg version="1.1" xmlns="http://www.w3.org/2000/svg" width="466" height="1035">
<path d="M0 0 C0.72488617 0.00215515 1.44977234 0.0043103 2.19662476 0.00653076 C45.29792937 0.21170448 84.05784673 17.51690982 114.875 47.3125 C115.87273437 48.23289062 115.87273437 48.23289062 116.890625 49.171875 C146.05526605 76.70111562 159.57496881 118.64289434 161 157.7421875 C161.72975362 200.1591165 146.43940883 235.98048582 124.59814453 271.49316406 C122.28464089 275.27842051 120.0434925 279.10325918 117.8125 282.9375 C106.87507859 301.62254658 95.40024832 319.98636024 83.875 338.3125 C83.08246826 339.57271973 83.08246826 339.57271973 82.27392578 340.85839844 C79.3167928 345.55675363 76.34987423 350.24881201 73.37744141 354.9375 C71.84409543 357.36135273 70.31822379 359.78979925 68.79296875 362.21875 C59.57550337 376.85309467 49.98782614 391.23140248 40.36515808 405.60064697 C36.76160036 410.98288311 33.16931951 416.37253372 29.58203125 421.765625 C11.75938152 448.55477167 11.75938152 448.55477167 4.875 458.5625 C-11.98515971 483.08967199 -27.73242561 507.70667031 -41.125 534.3125 C-41.47401367 534.99586426 -41.82302734 535.67922852 -42.18261719 536.38330078 C-58.35921558 567.8692841 -58.35921558 567.8692841 -59.3996582 601.51318359 C-59.144021 602.25133301 -58.88838379 602.98948242 -58.625 603.75 C-58.22124146 604.93070068 -58.22124146 604.93070068 -57.80932617 606.13525391 C-54.94031751 614.24470275 -51.2006295 621.75399607 -47.125 629.3125 C-46.74279297 630.0353418 -46.36058594 630.75818359 -45.96679688 631.50292969 C-40.5927838 641.66112514 -34.8126208 651.53637087 -28.7946167 661.3230896 C-4.32543979 701.14839834 7.29803512 738.08662644 11.875 784.3125 C12.16930908 783.6632959 12.46361816 783.0140918 12.7668457 782.34521484 C26.23917785 752.73631297 40.37156454 723.36463877 56.875 695.3125 C57.9394342 693.47823126 59.00322531 691.64358919 60.06640625 689.80859375 C67.66457157 676.75929703 75.65943981 663.98097502 83.875 651.3125 C84.59042969 650.2090625 85.30585938 649.105625 86.04296875 647.96875 C103.77328935 621.05193067 122.98189447 594.86430603 143.875 570.3125 C145.525 570.6425 147.175 570.9725 148.875 571.3125 C154.27020095 585.2909752 154.24964682 600.03272949 154.1875 614.8125 C154.18600952 615.68769287 154.18451904 616.56288574 154.1829834 617.46459961 C154.15087396 627.96294791 153.95509544 638.38356326 152.625 648.8125 C152.46124878 650.12444336 152.46124878 650.12444336 152.29418945 651.46289062 C151.00146003 659.94658643 147.58132472 665.92685091 141.875 672.3125 C135.9984693 679.0337882 130.68222148 686.10227579 125.38232422 693.28173828 C123.91471815 695.25898921 122.43162988 697.2233497 120.94140625 699.18359375 C93.04765331 735.91083289 69.09587677 775.25582409 47.22851562 815.80957031 C46.0210579 818.04240881 44.801797 820.26821221 43.578125 822.4921875 C36.33407762 835.7680198 30.09722892 849.53647218 23.875 863.3125 C23.58328918 863.95779663 23.29157837 864.60309326 22.99102783 865.26794434 C5.09888496 904.90459946 -9.20593525 945.80840487 -22.125 987.3125 C-23.775 987.6425 -25.425 987.9725 -27.125 988.3125 C-29.90499418 984.29005032 -30.95367801 980.43838068 -31.75 975.6875 C-31.87479736 974.97094238 -31.99959473 974.25438477 -32.12817383 973.51611328 C-39.86982861 927.80593131 -29.04272496 878.45191204 -16.17062378 834.58192444 C-15.29378385 831.59213188 -14.43360512 828.59760748 -13.57189941 825.60342407 C-12.95417702 823.49443758 -12.30591522 821.39662703 -11.65527344 819.29760742 C-9.30041667 811.3881732 -8.60278307 805.91170607 -12.125 798.3125 C-12.40496826 797.61543945 -12.68493652 796.91837891 -12.97338867 796.20019531 C-13.85444802 794.05531511 -14.81431493 791.96785511 -15.8125 789.875 C-16.18987305 789.08134033 -16.56724609 788.28768066 -16.95605469 787.4699707 C-22.33552619 776.4804491 -28.79900981 766.07456668 -35.12792969 755.61474609 C-59.42284402 715.44200633 -76.16789659 676.6036595 -80.125 629.3125 C-80.18284668 628.62897461 -80.24069336 627.94544922 -80.30029297 627.24121094 C-85.37874027 563.61745875 -73.9968449 500.1059498 -47.125 442.3125 C-46.73763672 441.47589844 -46.35027344 440.63929688 -45.95117188 439.77734375 C-36.00163388 418.53146058 -23.43562757 398.59579087 -10.125 379.3125 C-9.58020996 378.52069336 -9.03541992 377.72888672 -8.47412109 376.91308594 C-0.49291642 365.33840473 7.73779516 353.9620433 16.12060547 342.67578125 C25.80679553 329.62786588 35.40565775 316.51864961 44.875 303.3125 C45.37741211 302.61447266 45.87982422 301.91644531 46.39746094 301.19726562 C62.90788227 278.23091507 77.74664342 254.36595116 90.875 229.3125 C91.44734375 228.22324219 92.0196875 227.13398438 92.609375 226.01171875 C107.14277676 195.01609957 102.9359354 151.55208553 91.875 120.3125 C85.66183623 103.63559561 76.67083645 88.64179519 64.875 75.3125 C64.44574219 74.82297852 64.01648438 74.33345703 63.57421875 73.82910156 C38.24369374 45.04939123 5.08703183 27.38270724 -30.49609375 14.390625 C-35.74990967 12.47090915 -40.94510751 10.42280027 -46.125 8.3125 C-43.42451659 5.61201659 -40.99976958 5.28463287 -37.3125 4.3125 C-36.08917969 3.9825 -34.86585938 3.6525 -33.60546875 3.3125 C-22.44196778 0.68541157 -11.43250614 -0.06134604 0 0 Z " fill="#9C76B2" transform="translate(286.125,23.6875)"/>
<path d="M0 0 C2.24609375 0.0546875 2.24609375 0.0546875 5 1 C6.8885237 3.01084514 8.45493425 4.90918217 10.0625 7.125 C11.0340583 8.41489022 12.00675256 9.70392546 12.98046875 10.9921875 C13.47853027 11.65831055 13.9765918 12.32443359 14.48974609 13.01074219 C16.40300278 15.53082228 18.3939864 17.98102337 20.39404297 20.43237305 C27.06139158 28.61542784 33.23680004 37.11552682 39.35888672 45.71044922 C40.97536366 47.96562934 42.61076013 50.20560148 44.25390625 52.44140625 C51.6867466 62.57465897 58.67360318 72.93498312 65.42675781 83.53271484 C66.94136029 85.90803648 68.46593846 88.27668212 69.9921875 90.64453125 C82.56041173 110.2367258 94.04660276 130.46740552 105 151 C105.73017334 152.36560059 105.73017334 152.36560059 106.47509766 153.75878906 C132.48201323 202.55067614 153.18708571 253.37848334 170 306 C170.41838693 307.30275689 170.83684236 308.60549179 171.25537109 309.90820312 C172.39019792 313.45610344 173.51182902 317.00775158 174.625 320.5625 C174.9439624 321.57223877 175.2629248 322.58197754 175.59155273 323.62231445 C183.8596193 350.54313921 185.99853832 390.28440174 173.875 416.42578125 C173.58625 416.94527344 173.2975 417.46476562 173 418 C171.35 417.67 169.7 417.34 168 417 C165.01931468 408.1341714 162.06138214 399.26367313 159.24609375 390.34375 C140.42433591 330.86373787 115.60788794 272.85216747 84 219 C83.38833984 217.94828613 82.77667969 216.89657227 82.14648438 215.81298828 C68.41101453 192.20385531 53.90016056 169.21188755 38 147 C36.91001158 145.46494647 35.82016638 143.92979122 34.73046875 142.39453125 C25.99173378 130.13604634 16.89835378 118.14968948 7.33203125 106.5234375 C6.74099609 105.80430176 6.14996094 105.08516602 5.54101562 104.34423828 C4.42444789 102.991425 3.30241475 101.64309582 2.17382812 100.30029297 C1.66916016 99.69072754 1.16449219 99.08116211 0.64453125 98.453125 C-0.01518677 97.66663574 -0.01518677 97.66663574 -0.68823242 96.86425781 C-4.12223254 91.98392561 -5.57133316 87.33776531 -6.16796875 81.4609375 C-6.24734177 80.72894135 -6.32671478 79.99694519 -6.40849304 79.24276733 C-7.25529928 70.63946798 -7.33631426 62.0280526 -7.31567383 53.38964844 C-7.31251075 50.63436337 -7.33609868 47.88015388 -7.36132812 45.125 C-7.41576887 30.18625941 -6.54709843 15.04323478 -1 1 C-0.67 0.67 -0.34 0.34 0 0 Z " fill="#7D7FB7" transform="translate(50,594)"/>
<path d="M0 0 C-1.84893025 5.83998682 -3.9790891 11.43337255 -6.41333008 17.05273438 C-20.06215723 48.62365627 -28.4638473 81.44365901 -28.375 115.9375 C-28.37445618 116.73993134 -28.37391235 117.54236267 -28.37335205 118.36911011 C-28.2503521 158.1035059 -16.57288293 195.31053791 9 226 C9.97839844 227.19302734 9.97839844 227.19302734 10.9765625 228.41015625 C14.93229153 233.09742421 19.24863807 237.12910747 24 241 C25.42119141 242.16015625 25.42119141 242.16015625 26.87109375 243.34375 C64.11041615 273.15616158 110.54079288 283.53276855 157 288 C157 288.66 157 289.32 157 290 C139.22698884 300.09507034 121.29777156 307.09072734 101 310 C99.25589844 310.27457031 99.25589844 310.27457031 97.4765625 310.5546875 C66.18925915 314.32950724 34.21906204 308.84885532 6 295 C5.37432129 294.69868164 4.74864258 294.39736328 4.10400391 294.08691406 C-11.07518621 286.7024432 -23.89424088 276.67533213 -36 265 C-36.71542969 264.33613281 -37.43085937 263.67226563 -38.16796875 262.98828125 C-64.35510765 238.05561607 -82.17267099 197.08833421 -83.16113281 160.99682617 C-83.18063271 159.59560613 -83.19441125 158.19429737 -83.203125 156.79296875 C-83.21018463 156.0342598 -83.21724426 155.27555084 -83.22451782 154.49385071 C-83.45295712 122.73855619 -83.45295712 122.73855619 -80 109 C-79.79068848 108.15630859 -79.58137695 107.31261719 -79.36572266 106.44335938 C-68.4346747 63.52371742 -44.84832364 26.67176367 -7 3 C-6.07058594 2.4121875 -5.14117187 1.824375 -4.18359375 1.21875 C-2 0 -2 0 0 0 Z " fill="#D58CBC" transform="translate(103,76)"/>
<path d="M0 0 C0.01458252 0.77899658 0.02916504 1.55799316 0.04418945 2.3605957 C0.69353639 33.51777609 3.08527775 63.78680779 25 88 C25.76441406 88.88042969 26.52882812 89.76085937 27.31640625 90.66796875 C43.09909282 107.75182338 67.49972333 118.77669368 90.65527344 120.15844727 C123.75018511 121.43654692 149.58248435 112.16650258 175 91 C175.63679687 90.48695313 176.27359375 89.97390625 176.9296875 89.4453125 C187.72268646 80.57106891 196.05510045 68.38768935 204 57 C207.95630497 60.95630497 207.11478135 68.09636346 207.25 73.4375 C206.9701853 102.53822894 194.18061018 128.47676463 173.73657227 148.68334961 C159.06482762 162.63182291 141.36742834 171.57887874 122 177 C120.79730469 177.34160156 119.59460938 177.68320312 118.35546875 178.03515625 C98.30918148 182.70465979 75.74200075 181.53467287 56 176 C54.99525635 175.72712158 54.99525635 175.72712158 53.97021484 175.44873047 C23.70404825 167.00499065 -2.54677289 146.15566243 -17.96484375 118.84375 C-30.48847759 95.70161748 -34.13605911 68.39531862 -27.1953125 42.875 C-25.55368173 37.37244711 -23.52911713 32.15686277 -21 27 C-20.22849609 25.39898437 -20.22849609 25.39898437 -19.44140625 23.765625 C-7.36333627 0 -7.36333627 0 0 0 Z " fill="#D284B8" transform="translate(143,135)"/>
<path d="M0 0 C1.65 0.33 3.3 0.66 5 1 C7.4784276 8.34300092 9.38470406 15.59427178 10.875 23.1875 C17.58701775 56.16862814 35.06248925 85.5844718 54 113 C54.48581543 113.70334473 54.97163086 114.40668945 55.47216797 115.13134766 C64.62142283 128.32180363 74.18305709 141.21440719 83.7890625 154.07421875 C84.41055176 154.90969238 85.03204102 155.74516602 85.67236328 156.60595703 C86.84647799 158.18409519 88.02423673 159.75953236 89.20654297 161.33154297 C90.84041458 163.53066691 92.42374572 165.75931347 94 168 C94.82564453 169.09803955 94.82564453 169.09803955 95.66796875 170.21826172 C103.96878128 182.25996706 102.34824391 198.91480168 102.31567383 212.9621582 C102.31251533 215.79873211 102.33607059 218.63425712 102.36132812 221.47070312 C102.4143643 236.73543975 102.03931869 253.10002553 95 267 C92.77734375 266.8671875 92.77734375 266.8671875 90 266 C88.29878159 264.05835895 86.95696864 262.26961083 85.5625 260.125 C84.68685748 258.83980711 83.80913748 257.55602798 82.9296875 256.2734375 C82.22537598 255.23654785 82.22537598 255.23654785 81.50683594 254.17871094 C78.82558786 250.30193553 75.998403 246.53322307 73.1875 242.75 C32.08327318 187.1082327 32.08327318 187.1082327 19.96679688 161.06933594 C18.93047158 158.85118109 17.86322949 156.64917338 16.796875 154.4453125 C4.44816744 128.47035405 -2.48780915 100.46819052 -6 72 C-6.09571289 71.24895996 -6.19142578 70.49791992 -6.29003906 69.72412109 C-8.84208049 47.50123708 -9.38291919 20.76625769 0 0 Z " fill="#AC71B0" transform="translate(82,390)"/>
<path d="M0 0 C13.68947263 11.68613518 21.84078373 26.80550389 23.66015625 44.75 C23.9631399 53.81316305 22.40871709 63.29527406 17.375 70.9375 C13.77860575 69.30667683 10.75849994 67.12005216 7.5625 64.8125 C-17.53257753 47.20768995 -48.00073064 39.86881682 -78.45410156 45.07006836 C-88.03433119 46.92309129 -96.74053358 49.92446807 -105.625 53.9375 C-106.58921875 54.35773438 -107.5534375 54.77796875 -108.546875 55.2109375 C-110.5809619 56.10164015 -112.60469754 57.01595853 -114.625 57.9375 C-119.0887706 46.52810234 -117.40570867 32.96125176 -112.625 21.9375 C-104.09196883 4.70246674 -90.77561059 -6.85856492 -72.75878906 -13.37841797 C-47.55873924 -21.45742708 -20.71068698 -16.27268262 0 0 Z " fill="#DE9FC5" transform="translate(297.625,105.0625)"/>
<path d="M0 0 C13.11882784 25.92407402 25.26816323 54.40203312 16.25 83.6484375 C10.83631106 98.16389098 0.39724606 109.78694331 -10 121 C-10.86496094 121.95648437 -11.72992188 122.91296875 -12.62109375 123.8984375 C-18.08697405 129.940496 -23.71813495 135.7566756 -29.515625 141.48046875 C-31.61657791 143.61115213 -33.57479491 145.775173 -35.5 148.0625 C-38.35562876 151.38716923 -41.42560606 154.44632228 -44.625 157.4375 C-45.52476562 158.28183594 -46.42453125 159.12617187 -47.3515625 159.99609375 C-50.04464069 162.0337768 -51.68161191 162.67055714 -55 163 C-54.38511719 161.72769531 -54.38511719 161.72769531 -53.7578125 160.4296875 C-45.29184228 141.99898678 -45.57117621 123.14868012 -52 104 C-54.90228839 96.20162087 -58.24890428 88.56415682 -61.88671875 81.08203125 C-62.43972656 79.94121094 -62.99273437 78.80039062 -63.5625 77.625 C-64.05878906 76.64789062 -64.55507813 75.67078125 -65.06640625 74.6640625 C-66.17087493 71.51239872 -65.9044348 70.17683857 -65 67 C-63.77587891 65.06225586 -63.77587891 65.06225586 -62.2265625 63.21484375 C-61.36816772 62.18025024 -61.36816772 62.18025024 -60.49243164 61.12475586 C-59.8761792 60.40296143 -59.25992676 59.68116699 -58.625 58.9375 C-57.9952124 58.18670166 -57.3654248 57.43590332 -56.71655273 56.66235352 C-52.07081478 51.16040447 -47.27739489 45.81289452 -42.3671875 40.546875 C-40.42752372 38.45997601 -38.54345769 36.34816716 -36.6875 34.1875 C-33.21588787 30.18631991 -29.61073299 26.31272095 -26 22.4375 C-25.41822998 21.81190186 -24.83645996 21.18630371 -24.23706055 20.54174805 C-18.65661827 14.57228267 -13.08691447 8.66809817 -6.6875 3.5625 C-5.84574219 2.88316406 -5.00398438 2.20382812 -4.13671875 1.50390625 C-2 0 -2 0 0 0 Z " fill="#528CBD" transform="translate(410,837)"/>
</svg>
